<svg xmlns="http://www.w3.org/2000/svg" width="241.816" height="314" viewBox="0 0 241.816 314">
  <g id="Group_405" data-name="Group 405" transform="translate(-17300 6381)">
    <g id="Path_293" data-name="Path 293" transform="translate(17300 -6381)" fill="#a24fb1">
      <path d="M 202.1149597167969 312 L 39.70113372802734 312 C 34.61063385009766 312 29.6734676361084 311.0034484863281 25.02675819396973 309.0380859375 C 20.5375919342041 307.1393432617188 16.50546646118164 304.420654296875 13.04242515563965 300.9575805664062 C 9.579341888427734 297.4945373535156 6.86067533493042 293.46240234375 4.961925506591797 288.9732360839844 C 2.996550559997559 284.3265380859375 2.000008821487427 279.3893737792969 2.000008821487427 274.2988891601562 L 2.000008821487427 39.70116806030273 C 2.000008821487427 34.61066818237305 2.996550559997559 29.67350006103516 4.961925506591797 25.02679252624512 C 6.86067533493042 20.53758239746094 9.579341888427734 16.50545883178711 13.04242515563965 13.0424165725708 C 16.50546646118164 9.579375267028809 20.5375919342041 6.860708236694336 25.02675819396973 4.961916446685791 C 29.6734676361084 2.996541738510132 34.61063385009766 2 39.70113372802734 2 L 202.1149597167969 2 C 207.2054595947266 2 212.1426391601562 2.996541738510132 216.7893371582031 4.961916446685791 C 221.2785034179688 6.860708236694336 225.3106384277344 9.579375267028809 228.773681640625 13.0424165725708 C 232.2367553710938 16.50545883178711 234.9554290771484 20.53758239746094 236.8541717529297 25.02679252624512 C 238.8195495605469 29.67350006103516 239.8160858154297 34.61066818237305 239.8160858154297 39.70116806030273 L 239.8160858154297 274.2988891601562 C 239.8160858154297 279.3893737792969 238.8195495605469 284.3265380859375 236.8541717529297 288.9732360839844 C 234.9554290771484 293.46240234375 232.2367553710938 297.4945373535156 228.773681640625 300.9575805664062 C 225.3106384277344 304.420654296875 221.2785034179688 307.1393432617188 216.7893371582031 309.0380859375 C 212.1426391601562 311.0034484863281 207.2054595947266 312 202.1149597167969 312 Z" stroke="none"/>
      <path d="M 39.70114135742188 4 C 34.8797607421875 4 30.2047119140625 4.943389892578125 25.80587768554688 6.803924560546875 C 21.55509948730469 8.60186767578125 17.73663330078125 11.17657470703125 14.45663452148438 14.45663452148438 C 11.17658996582031 17.73663330078125 8.601882934570312 21.55508422851562 6.803924560546875 25.80587768554688 C 4.943389892578125 30.2047119140625 4.000015258789062 34.8797607421875 4.000015258789062 39.70111083984375 L 4.000015258789062 274.298828125 C 4.000015258789062 279.1202087402344 4.943389892578125 283.7952575683594 6.803924560546875 288.1941223144531 C 8.601882934570312 292.4449157714844 11.17658996582031 296.2633361816406 14.45663452148438 299.5433654785156 C 17.73663330078125 302.8233642578125 21.55509948730469 305.3981323242188 25.80587768554688 307.1960754394531 C 30.2047119140625 309.0566101074219 34.8797607421875 310 39.70114135742188 310 L 202.1149291992188 310 C 206.9363098144531 310 211.6113891601562 309.0566101074219 216.0102233886719 307.1960754394531 C 220.2610168457031 305.3981323242188 224.0794677734375 302.8233642578125 227.3594665527344 299.5433654785156 C 230.6395111083984 296.2633361816406 233.2142181396484 292.4449157714844 235.0121765136719 288.1941223144531 C 236.8727111816406 283.7952575683594 237.8160858154297 279.1202087402344 237.8160858154297 274.298828125 L 237.8160858154297 39.70111083984375 C 237.8160858154297 34.8797607421875 236.8727111816406 30.2047119140625 235.0121765136719 25.80587768554688 C 233.2142181396484 21.55508422851562 230.6395111083984 17.73663330078125 227.3594665527344 14.45663452148438 C 224.0794677734375 11.17657470703125 220.2610168457031 8.60186767578125 216.0102233886719 6.803924560546875 C 211.6113891601562 4.943389892578125 206.9363403320312 4 202.1149291992188 4 L 39.70114135742188 4 M 39.70114135742188 0 L 202.1149291992188 0 C 224.0413055419922 0 241.8160858154297 17.7747802734375 241.8160858154297 39.70111083984375 L 241.8160858154297 274.298828125 C 241.8160858154297 296.2251586914062 224.0413055419922 314 202.1149291992188 314 L 39.70114135742188 314 C 17.77479553222656 314 1.52587890625e-05 296.2251586914062 1.52587890625e-05 274.298828125 L 1.52587890625e-05 39.70111083984375 C 1.52587890625e-05 17.7747802734375 17.77479553222656 0 39.70114135742188 0 Z" stroke="none" fill="#fff"/>
    </g>
    <g id="Path_291" data-name="Path 291" transform="translate(17300 -6381)" fill="#a24fb1">
      <path d="M 202.1149444580078 272.2988586425781 L 39.70115661621094 272.2988586425781 C 34.61065673828125 272.2988586425781 29.6734790802002 271.3023071289062 25.02676391601562 269.3369140625 C 20.5375862121582 267.4381713867188 16.50547981262207 264.7195129394531 13.04240798950195 261.2564392089844 C 9.579372406005859 257.7933959960938 6.860693454742432 253.7612915039062 4.961943626403809 249.2720794677734 C 2.996550559997559 244.6253967285156 2.000014781951904 239.6882171630859 2.000014781951904 234.5977172851562 L 2.000014781951904 39.70114517211914 C 2.000014781951904 34.61064529418945 2.996550559997559 29.67346572875977 4.961943626403809 25.02678680419922 C 6.860693454742432 20.53757286071777 9.579372406005859 16.50546455383301 13.04240798950195 13.04242897033691 C 16.50547981262207 9.579358100891113 20.5375862121582 6.860679149627686 25.02676391601562 4.961929321289062 C 29.6734790802002 2.996536493301392 34.61065673828125 2.000000715255737 39.70115661621094 2.000000715255737 L 202.1149444580078 2.000000715255737 C 207.2054443359375 2.000000715255737 212.1426239013672 2.996536493301392 216.7893371582031 4.961929321289062 C 221.2785186767578 6.860679149627686 225.3106536865234 9.579358100891113 228.7736968994141 13.04242897033691 C 232.2367706298828 16.50546455383301 234.9554443359375 20.53760719299316 236.8541870117188 25.02678680419922 C 238.819580078125 29.67346572875977 239.8161163330078 34.61064529418945 239.8161163330078 39.70114517211914 L 239.8161163330078 234.5977172851562 C 239.8161163330078 239.6882171630859 238.819580078125 244.6253967285156 236.8541870117188 249.2720794677734 C 234.9554443359375 253.7612457275391 232.2367706298828 257.7933959960938 228.7736968994141 261.2564392089844 C 225.3106536865234 264.7195129394531 221.2785186767578 267.4381713867188 216.7893371582031 269.3369140625 C 212.1426239013672 271.3023071289062 207.2054443359375 272.2988586425781 202.1149444580078 272.2988586425781 Z" stroke="none"/>
      <path d="M 39.70112609863281 4 C 34.87974548339844 4 30.2047119140625 4.943389892578125 25.80586242675781 6.803924560546875 C 21.55508422851562 8.601837158203125 17.73666381835938 11.1766357421875 14.45663452148438 14.45663452148438 C 11.17662048339844 17.73666381835938 8.601852416992188 21.55508422851562 6.803939819335938 25.80584716796875 C 4.943389892578125 30.20469665527344 4.000015258789062 34.87973022460938 4.000015258789062 39.70112609863281 L 4.000015258789062 234.5977020263672 C 4.000015258789062 239.4190826416016 4.943389892578125 244.0941162109375 6.803939819335938 248.4929656982422 C 8.601852416992188 252.7437744140625 11.17662048339844 256.5621948242188 14.45663452148438 259.8422241210938 C 17.73666381835938 263.1222229003906 21.55508422851562 265.697021484375 25.80586242675781 267.4949340820312 C 30.2047119140625 269.35546875 34.87974548339844 270.2988586425781 39.70112609863281 270.2988586425781 L 202.1149291992188 270.2988586425781 C 206.9363250732422 270.2988586425781 211.6113586425781 269.35546875 216.0102081298828 267.4949340820312 C 220.2610168457031 265.697021484375 224.0794372558594 263.1222229003906 227.3594665527344 259.8422241210938 C 230.6394805908203 256.5621948242188 233.2142486572266 252.7437744140625 235.0121612548828 248.4929656982422 C 236.8727111816406 244.0941162109375 237.8160858154297 239.4190826416016 237.8160858154297 234.5977020263672 L 237.8160858154297 39.70112609863281 C 237.8160858154297 34.87973022460938 236.8727111816406 30.20469665527344 235.0121612548828 25.80584716796875 C 233.2142486572266 21.55508422851562 230.6394805908203 17.73666381835938 227.3594665527344 14.45663452148438 C 224.0794372558594 11.1766357421875 220.2610168457031 8.601837158203125 216.0102081298828 6.803924560546875 C 211.6113586425781 4.943389892578125 206.9363250732422 4 202.1149291992188 4 L 39.70112609863281 4 M 39.70112609863281 0 L 202.1149291992188 0 C 224.0412750244141 0 241.8160858154297 17.77481079101562 241.8160858154297 39.70112609863281 L 241.8160858154297 234.5977020263672 C 241.8160858154297 256.5240478515625 224.0412750244141 274.2988586425781 202.1149291992188 274.2988586425781 L 39.70112609863281 274.2988586425781 C 17.77482604980469 274.2988586425781 1.52587890625e-05 256.5240478515625 1.52587890625e-05 234.5977020263672 L 1.52587890625e-05 39.70112609863281 C 1.52587890625e-05 17.77481079101562 17.77482604980469 0 39.70112609863281 0 Z" stroke="none" fill="#fff"/>
    </g>
    <path id="Path_290" data-name="Path 290" d="M197.574,229.419l-45.669-.035c.147-.031-5.46-6.135-5.46-6.135,9.837-1.739,24.517-13.218,23.734-27.964h11.456c0,9.822-4.365,17.264-10.175,22.678h25.9c15.449-.615,17.12-13.223,17.12-18.623V145.88c0-17.473-13.619-18.359-16.35-18.359h-16.5v58.917H161.187c-14.145,0-35.187-9.37-35.187-35.186s21.042-35.186,35.187-35.186v11.456c-8.208,0-23.731,4.959-23.731,23.73s15.523,23.73,23.731,23.73h8.991V116.066h27.954c9.618,0,27.806,6.231,27.806,29.814V199.34c0,21.441-15.223,29.6-28.259,30.076Z" transform="translate(17241.623 -6429.171)" fill="#fff"/>
  </g>
</svg>
